<?xml version="1.0" encoding="utf-8"?>
<!-- Generator: Adobe Illustrator 21.1.0, SVG Export Plug-In . SVG Version: 6.00 Build 0)  -->
<svg version="1.1" id="Layer_1" xmlns="http://www.w3.org/2000/svg" xmlns:xlink="http://www.w3.org/1999/xlink" x="0px" y="0px"
	 viewBox="0 0 612 792" style="enable-background:new 0 0 612 792;" xml:space="preserve">
<style type="text/css">
	.st0{fill:#068B7D;stroke:#000000;stroke-miterlimit:10;}
	.st1{fill:none;}
	.st2{font-family:'Lato-Thin';}
	.st3{font-size:60px;}
</style>
<g>
	
		<image style="overflow:visible;opacity:0.47;" width="720" height="768" xlink:href="DA578650E06F4A1F.png"  transform="matrix(0.24 0 0 0.24 221.6222 232.4)">
	</image>
	<g>
		<g>
			<path class="st0" d="M376.7,322.6c0,10.8-1.7,20.9-5.1,30.2c-3.4,9.3-8.2,17.4-14.3,24.3s-13.6,12.3-22.3,16.2
				c-8.7,3.9-18.3,5.9-28.9,5.9c-10.6,0-20.2-2-28.9-5.9c-8.7-3.9-16.2-9.3-22.4-16.2c-6.2-6.9-11-15-14.4-24.3
				c-3.4-9.3-5.1-19.4-5.1-30.2c0-10.8,1.7-20.9,5.1-30.2c3.4-9.3,8.2-17.4,14.4-24.3c6.2-6.9,13.6-12.2,22.4-16.1
				c8.7-3.9,18.4-5.9,28.9-5.9c10.6,0,20.2,2,28.9,5.9c8.7,3.9,16.1,9.3,22.3,16.2c6.2,6.9,10.9,14.9,14.3,24.3
				C375,301.8,376.7,311.8,376.7,322.6z M344.4,322.6c0-7.4-0.9-14.1-2.6-20c-1.7-5.9-4.2-10.9-7.5-15.1c-3.3-4.1-7.3-7.3-12-9.5
				c-4.7-2.2-10.1-3.3-16.1-3.3c-6.1,0-11.5,1.1-16.3,3.3c-4.8,2.2-8.8,5.3-12,9.5c-3.3,4.1-5.8,9.1-7.5,15.1
				c-1.7,5.9-2.6,12.6-2.6,20c0,7.5,0.9,14.2,2.6,20.1c1.7,5.9,4.2,10.9,7.5,15.1c3.3,4.1,7.3,7.2,12,9.4c4.8,2.2,10.2,3.2,16.3,3.2
				c6,0,11.4-1.1,16.1-3.2c4.7-2.2,8.7-5.3,12-9.4c3.3-4.1,5.8-9.1,7.5-15.1C343.5,336.7,344.4,330,344.4,322.6z"/>
		</g>
	</g>
</g>
<g>
	
		<image style="overflow:visible;opacity:0.47;" width="449" height="611" xlink:href="DA578650E06F4A1D.png"  transform="matrix(0.24 0 0 0.24 254.16 250.44)">
	</image>
	<g>
		<g>
			<path d="M344.7,321.6c0,8.2-0.9,15.8-2.8,22.9c-1.9,7.1-4.5,13.2-7.8,18.4s-7.4,9.3-12.2,12.3c-4.8,3-10,4.4-15.8,4.4
				c-5.8,0-11.1-1.5-15.8-4.4c-4.8-3-8.9-7.1-12.2-12.3c-3.4-5.2-6-11.4-7.9-18.4c-1.9-7.1-2.8-14.7-2.8-22.9
				c0-8.2,0.9-15.8,2.8-22.9c1.9-7.1,4.5-13.2,7.9-18.4c3.4-5.2,7.5-9.3,12.2-12.2c4.8-3,10.1-4.4,15.8-4.4c5.8,0,11.1,1.5,15.8,4.5
				c4.8,3,8.8,7.1,12.2,12.3c3.4,5.2,6,11.3,7.8,18.4C343.7,305.9,344.7,313.5,344.7,321.6z"/>
		</g>
	</g>
</g>
<rect x="139.5" y="451.5" class="st1" width="339" height="81"/>
<text transform="matrix(1 0 0 1 139.5 494.8799)" class="st2 st3">OVERTABLE</text>
</svg>
